{"title":"Robot Overlords 2014 Movies HDRip XViD AAC New +Sample ~ â˜»rDXâ˜»","uid":11775271,"size":738362625,"categoryP":"video","categoryS":"movies","magnet":"?xt=urn:btih:47cef52c78311fcdae699e3041d7dbe2aa7e2139&amp;dn=Robot+Overlords+2014+Movies+HDRip+XViD+AAC+New+%2BSample+%7E+%E2%98%BBrDX%E2%98%BB&amp;tr=udp%3A%2F%2Ftracker.openbittorrent.com%3A80&amp;tr=udp%3A%2F%2Fopen.demonii.com%3A1337&amp;tr=udp%3A%2F%2Ftracker.coppersurfer.tk%3A6969&amp;tr=udp%3A%2F%2Fexodus.desync.com%3A6969","seeders":2,"leechers":1,"uploader":"basicssom","files":2,"time":1427258212,"description":"----------------------------------------------------------------\nRobot Overlords 2014 English Movies HDRip XViD AAC New Source with Sample ~ â˜»rDXâ˜»\n\nSCREEN SHOTS &amp; POSTER:\n &lt;a href=&quot;\nhttp://planethost.co.nr/2015/3/RobotOverlords/11.html&quot; rel=&quot;nofollow&quot; target=&quot;_NEW&quot;&gt;\nhttp://planethost.co.nr/2015/3/RobotOverlords/11.html&lt;/a&gt; &lt;a href=&quot;\nhttp://planethost.co.nr/2015/3/RobotOverlords/1.html&quot; rel=&quot;nofollow&quot; target=&quot;_NEW&quot;&gt;\nhttp://planethost.co.nr/2015/3/RobotOverlords/1.html&lt;/a&gt; &lt;a href=&quot;\nhttp://planethost.co.nr/2015/3/RobotOverlords/2.html&quot; rel=&quot;nofollow&quot; target=&quot;_NEW&quot;&gt;\nhttp://planethost.co.nr/2015/3/RobotOverlords/2.html&lt;/a&gt; &lt;a href=&quot;\nhttp://planethost.co.nr/2015/3/RobotOverlords/3.html&quot; rel=&quot;nofollow&quot; target=&quot;_NEW&quot;&gt;\nhttp://planethost.co.nr/2015/3/RobotOverlords/3.html&lt;/a&gt; &lt;a href=&quot;\nhttp://planethost.co.nr/2015/3/RobotOverlords/4.html&quot; rel=&quot;nofollow&quot; target=&quot;_NEW&quot;&gt;\nhttp://planethost.co.nr/2015/3/RobotOverlords/4.html&lt;/a&gt; &lt;a href=&quot;\nhttp://planethost.co.nr/2015/3/RobotOverlords/5.html&quot; rel=&quot;nofollow&quot; target=&quot;_NEW&quot;&gt;\nhttp://planethost.co.nr/2015/3/RobotOverlords/5.html&lt;/a&gt; &lt;a href=&quot;\nhttp://planethost.co.nr/2015/3/RobotOverlords/6.html&quot; rel=&quot;nofollow&quot; target=&quot;_NEW&quot;&gt;\nhttp://planethost.co.nr/2015/3/RobotOverlords/6.html&lt;/a&gt; &lt;a href=&quot;\nhttp://planethost.co.nr/2015/3/RobotOverlords/7.html&quot; rel=&quot;nofollow&quot; target=&quot;_NEW&quot;&gt;\nhttp://planethost.co.nr/2015/3/RobotOverlords/7.html&lt;/a&gt; &lt;a href=&quot;\nhttp://planethost.co.nr/2015/3/RobotOverlords/8.html&quot; rel=&quot;nofollow&quot; target=&quot;_NEW&quot;&gt;\nhttp://planethost.co.nr/2015/3/RobotOverlords/8.html&lt;/a&gt; &lt;a href=&quot;\nhttp://planethost.co.nr/2015/3/RobotOverlords/9.html&quot; rel=&quot;nofollow&quot; target=&quot;_NEW&quot;&gt;\nhttp://planethost.co.nr/2015/3/RobotOverlords/9.html&lt;/a&gt; &lt;a href=&quot;\nhttp://planethost.co.nr/2015/3/RobotOverlords/10.html&quot; rel=&quot;nofollow&quot; target=&quot;_NEW&quot;&gt;\nhttp://planethost.co.nr/2015/3/RobotOverlords/10.html&lt;/a&gt;\n\nFormat                                   : Matroska\nFormat version                           : Version 4 / Version 2\nFile size                                : 696 MiB\nOverall bit rate                         : 1 097 Kbps\nMovie name                               : Robot Overlords 2014 English Movies HDRip XViD AAC New Source ~ rDX ~\n\nVideo\nID                                       : 1\nFormat                                   : MPEG-4 Visual\nFormat profile                           : Advanced Simple@L5\nFormat settings, BVOP                    : Yes\nFormat settings, QPel                    : Yes\nFormat settings, GMC                     : No warppoints\nFormat settings, Matrix                  : Default (H.263)\nCodec ID                                 : V_MS/VFW/FOURCC / XVID\nCodec ID/Hint                            : XviD\nBit rate                                 : 947 Kbps\nWidth                                    : 640 pixels\nHeight                                   : 352 pixels\nDisplay aspect ratio                     : 16:9\nFrame rate mode                          : Constant\nFrame rate                               : 23.976 fps\nColor space                              : YUV\nChroma subsampling                       : 4:2:0\nBit depth                                : 8 bits\nScan type                                : Progressive\nCompression mode                         : Lossy\nBits/(Pixel*Frame)                       : 0.175\nStream size                              : 601 MiB (86%)\nTitle                                    : ~ rDX ~\nWriting library                          : XviD 1.2.1 (UTC 2008-12-04)\nDefault                                  : Yes\nForced                                   : No\n\nAudio\nID                                       : 2\nFormat                                   : MPEG Audio\nFormat version                           : Version 1\nFormat profile                           : Layer 3\nMode                                     : Joint stereo\nCodec ID                                 : A_MPEG/L3\nCodec ID/Hint                            : MP3\nBit rate mode                            : Constant\nBit rate                                 : 128 Kbps\nChannel(s)                               : 2 channels\nSampling rate                            : 48.0 KHz\nCompression mode                         : Lossy\nStream size                              : 82.2 MiB (12%)\nTitle                                    : ~ rDX ~\nWriting library                          : LAME3.99r\nEncoding settings                        : -m j -V 4 -q 2 -lowpass 17 -b 128\nDefault                                  : Yes\nForced                                   : No","torrent":{"xt":"urn:btih:47cef52c78311fcdae699e3041d7dbe2aa7e2139","amp;dn":"Robot+Overlords+2014+Movies+HDRip+XViD+AAC+New+%2BSample+%7E+%E2%98%BBrDX%E2%98%BB","amp;tr":["udp%3A%2F%2Ftracker.openbittorrent.com%3A80","udp%3A%2F%2Fopen.demonii.com%3A1337","udp%3A%2F%2Ftracker.coppersurfer.tk%3A6969","udp%3A%2F%2Fexodus.desync.com%3A6969"],"infoHash":"47cef52c78311fcdae699e3041d7dbe2aa7e2139","infoHashBuffer":{"type":"Buffer","data":[71,206,245,44,120,49,31,205,174,105,158,48,65,215,219,226,170,126,33,57]},"announce":[],"urlList":[]}}